:SAMPLES-PER-SECOND 30
:FULLY-SPECIFIED
:DEGREES
192
root  -55.0523 41.4928 -39.9017 -178.878 1.94682 -178.827
RightUpLeg  -1.19301 -6.79118 -4.49365
RightLeg  2.24781 -5.08581 2.63812
RightFoot  0.639895 0.0823094 -0.800481
RightToes  1.16414e-010 0 -3.6325e-017
Spine  3.81719 -0.317103 1.1283
Spine1  0.28512 -0.250814 -0.383744
HEad  -10.4546 3.10841 -0.423205
LeftShoulder1  0.0716689 3.05461 -7.14545
LeftArm  -15.1952 13.6665 -1.65415
LeftForeArm  13.5344 -7.22939 -2.59928
LeftHand  -0.244104 0.0205437 5.32207
RightShoulder  0.137404 -2.23615 2.83704
RightArm  -15.3305 -5.48645 1.81528
RightForeArm  -4.66497 2.3447 4.73672
RightHand  -1.20329 4.46516 -14.3844
LeftUpLeg  0.552189 5.10235 3.63517
LeftLeg  3.07011 9.8583 -3.14164
LeftFoot  -4.04801 -0.0484671 1.12565
LeftToes  9.04034e-010 7.59002e-011 -1.12606e-011
193
root  -55.0128 41.4926 -39.9839 -178.76 1.81432 -178.813
RightUpLeg  -1.21169 -6.8067 -4.45941
RightLeg  2.36798 -5.1642 2.67416
RightFoot  0.45562 0.0785053 -0.770719
RightToes  1.16414e-010 0 -3.6325e-017
Spine  3.99118 -0.307704 1.05309
Spine1  0.151589 -0.263745 -0.256156
HEad  -10.4007 3.09837 -0.516192
LeftShoulder1  0.112434 2.7865 -7.33308
LeftArm  -15.1291 13.8116 -1.42346
LeftForeArm  13.9448 -7.55138 -2.62478
LeftHand  -0.244104 0.0205437 5.32207
RightShoulder  0.136635 -2.17728 2.47745
RightArm  -15.3499 -5.67675 2.04887
RightForeArm  -4.18665 2.23823 4.67033
RightHand  -1.20284 4.52927 -14.2894
LeftUpLeg  0.548742 5.10973 3.69434
LeftLeg  3.0555 9.72554 -3.1177
LeftFoot  -4.09293 -0.047183 1.10569
LeftToes  9.04034e-010 7.59002e-011 -1.12606e-011
194
root  -54.9784 41.4886 -40.0559 -178.585 1.76762 -178.794
RightUpLeg  -1.29917 -6.74331 -4.37588
RightLeg  2.42366 -5.2491 2.65136
RightFoot  0.285685 0.0719438 -0.701595
RightToes  1.16414e-010 0 -3.6325e-017
Spine  4.04828 -0.287657 1.05238
Spine1  0.115355 -0.247376 -0.23218
HEad  -10.3643 3.15485 -0.657857
LeftShoulder1  0.136991 2.62765 -7.44423
LeftArm  -15.1362 13.7346 -1.41428
LeftForeArm  14.1536 -7.47128 -2.611
LeftHand  -0.244104 0.0205437 5.32207
RightShoulder  0.136249 -2.20598 2.33166
RightArm  -15.2869 -5.698 2.18206
RightForeArm  -4.04552 2.28982 4.68694
RightHand  -1.15247 4.30253 -14.0142
LeftUpLeg  0.473582 5.17141 3.77999
LeftLeg  3.06643 9.62032 -3.14987
LeftFoot  -4.18682 -0.0473977 1.10903
LeftToes  9.04034e-010 7.59002e-011 -1.12606e-011
195
root  -54.9521 41.4865 -40.118 -178.423 1.74367 -178.778
RightUpLeg  -1.35242 -6.64127 -4.27783
RightLeg  2.38903 -5.37146 2.58954
RightFoot  0.161506 0.0646562 -0.628897
RightToes  1.16414e-010 0 -3.6325e-017
Spine  4.06005 -0.33353 1.07254
Spine1  0.205701 -0.280548 -0.305339
HEad  -10.3973 3.30428 -0.702418
LeftShoulder1  0.122433 2.71947 -7.32767
LeftArm  -15.3559 13.6224 -1.72767
LeftForeArm  14.278 -7.36407 -2.54181
LeftHand  -0.244104 0.0205437 5.32207
RightShoulder  0.142193 -2.17552 2.58414
RightArm  -15.2544 -5.46341 2.05677
RightForeArm  -4.17678 2.36395 4.73747
RightHand  -1.10544 4.03207 -13.8277
LeftUpLeg  0.428952 5.22695 3.85639
LeftLeg  3.0128 9.53375 -3.2002
LeftFoot  -4.2586 -0.044701 1.06711
LeftToes  9.04034e-010 7.59002e-011 -1.12606e-011
196
root  -54.9228 41.4854 -40.1725 -178.315 1.59438 -178.777
RightUpLeg  -1.32923 -6.56829 -4.2001
RightLeg  2.33509 -5.6256 2.53494
RightFoot  0.0639114 0.0588593 -0.585879
RightToes  1.16414e-010 0 -3.6325e-017
Spine  4.11408 -0.46698 0.990743
Spine1  0.310619 -0.410628 -0.339375
HEad  -10.4967 3.47675 -0.663244
LeftShoulder1  0.104239 2.83101 -7.09856
LeftArm  -15.5212 13.6384 -2.06704
LeftForeArm  14.3971 -7.42939 -2.50399
LeftHand  -0.244104 0.0205437 5.32207
RightShoulder  0.168807 -1.98063 3.0188
RightArm  -15.3347 -5.27088 1.82317
RightForeArm  -4.04683 2.39438 4.72633
RightHand  -1.10612 4.04815 -13.813
LeftUpLeg  0.424321 5.22566 3.89971
LeftLeg  2.92166 9.37419 -3.21064
LeftFoot  -4.25751 -0.0398423 0.991589
LeftToes  9.04034e-010 7.59002e-011 -1.12606e-011
